# xmcd
#
# Track frame offsets: 
#        150
#        14251
#        28359
#        50154
#        65690
#        93562
#        103369
#        126573
#        142700
#        168313
#        188405
#        207285
#
# Disc length: 2985 seconds
#
# Revision: 0
# Processed by: cddbd v1.5.2PL0 Copyright (c) Steve Scherf et al.
# Submitted via: ExactAudioCopyFreeDBPlugin 1.0
#
DISCID=b10ba70c
DTITLE=Sister Mary and the Choir Boys - Sister Mary and the Choir Boys
DYEAR=2009
DGENRE=Blues
TTITLE0=Cry Baby
TTITLE1=I Love Your Money
TTITLE2=Grace
TTITLE3=Can't Help It
TTITLE4=My Name Is Em
TTITLE5=10,000 Years from Now
TTITLE6=Beautiful
TTITLE7=My Daddy's a Degenerate Gambler
TTITLE8=People Like Us
TTITLE9=Boogie
TTITLE10=Cowboys Cry
TTITLE11=Upper Class Princess
EXTD=
EXTT0=
EXTT1=
EXTT2=
EXTT3=
EXTT4=
EXTT5=
EXTT6=
EXTT7=
EXTT8=
EXTT9=
EXTT10=
EXTT11=
PLAYORDER=
